<?xml version="1.0" encoding="UTF-8"?>
<svg id="Layer_2" data-name="Layer 2" xmlns="http://www.w3.org/2000/svg" viewBox="0 0 411 345">
  <defs>
    <style>
      .cls-1 {
        fill: #1d5eba;
      }

      .cls-2 {
        fill: #edeeee;
      }

      .cls-3 {
        fill: #fbf6f6;
      }

      .cls-4 {
        fill: #1c354c;
      }

      .cls-5 {
        fill: #b60e0c;
      }

      .cls-6 {
        fill: #f8f9fc;
      }

      .cls-7 {
        fill: #fcfcfc;
      }
    </style>
  </defs>
  <g id="Layer_1-2" data-name="Layer 1">
    <g>
      <path class="cls-7" d="M0,482.5V0h411v483H0v-.5ZM240.07,53.6V19.7s-7-2.66-7-2.66l-27.11-10.77-33.95,14.38.27,33.72,34.8,12.96,32.99-13.73ZM65.31,87l32.56-13.45-.18-34.04-34.14-13.07-32.94,13.84-.11,33.9,34.82,12.83ZM366.59,79.74l17.98-7.68v-32.61s-32.39-12.96-32.39-12.96l-31.81,13.58-.04,32.79,32.7,12.51c4.2-1.37,9.26-3.79,13.56-5.63ZM162.93,51.39l-1.07-16.42-56.37,3.47,2.08,16.55,55.37-3.6ZM309.21,56.55l2.01-16.89-61.26-3.24-1.28,16.2,60.53,3.93ZM250.61,255.38c16.61-18.61,32.33-37.04,48.06-56.89.7-11.18-.95-21.55-3.75-32.46l-14.42-49.04c-23.21-10.72-45.02-19.95-68.4-29.05-3.05-1.19-8.01-.17-10.99,1.13l-39.8,17.31c-8.17,3.55-15.48,7.15-23.81,11.32-5.5,19.04-10.78,37.51-14.66,57.02-1.52,7.65-1.21,15.3-2.03,23.24,15.56,20.24,31.39,39.12,48.19,57.66,27.6,5.72,54.18,5.32,81.6-.23ZM346.25,135.18l18.52-2.3-.08-41.48-18.94,1.78.49,42ZM69.85,135.98l.38-42c-6.81.02-11.72-.49-19.01-1.97l-.23,39.54c6.67,1.05,11.67,2.38,18.86,4.43ZM126.22,120.44c-3.82-.41-7.68-1.48-11.18-1.49l-33.28-.1c-3.05,5.58-1.77,12.21,2.55,16.92l37.24.2,4.68-15.53ZM86.76,193.8l.42,3.13,24.95.02,1.4-13.68-18.15.14-.11,7.28c0,.53-1.69,2.74-2.05,2.36l-1.77-1.89.12-35.58-35.73-13.82-35.84,14.94-.09,35.11,36.85,13.52c10.72-3.6,19.95-8.96,29.99-11.54ZM394.09,191.51l.04-35.14-35.32-13.66-34.89,14.66-.23,35.11,36.22,13.52,34.18-14.48ZM115.58,167.25l2.84-14.44-20.72-.17-2.05,14.57,19.93.04ZM319.03,167.05l.1-14.28-19.14.18,3.87,14.19,15.17-.09ZM320.7,196.91c-2.01-4.52-2.2-8.08-2.28-13.52l-12.48-.18,1.05,13.73,13.72-.03ZM69.59,266.1l.04-53.22c-7.04,1.6-12.15,2.72-19.08,3.46l-.42,53.24,19.46-3.49ZM130.59,227.31l-11.86-14-38.52.16-.09,13.95,50.46-.11ZM336.11,227.37l-.07-14.04-36.85-.06-10.81,14.03,47.73.08ZM364.72,269.95l-.04-53.85c-6.34-.57-11.5-1.5-18.19-3.09l-.83,53.41,19.06,3.53ZM155.28,257.25l-11.92-13.91-62.71-.04c-.08,5.36.06,9.05.62,13.98l74-.03ZM335.33,257.31c.58-5.77.73-9.4.72-13.93l-59.86-.06c-4.03,4.32-7.32,8.13-11.51,13.83l70.65.16ZM66.4,337.28l31.37-13.67.17-34.09-33.29-13.48-33.09,14.26.04,34,34.79,12.98ZM384.9,323.31l-.06-34.15-32.98-13.17-33.35,14.49.48,33.71,34.07,12.79,31.85-13.67ZM217.68,341.55l24.58-10.16-.2-34.26-34.56-13.24-33.46,14.21-.08,34,34.81,13.29,8.91-3.83ZM310.39,324.58l-1.37-16.37-57.66,4.11,1.88,16.2,57.15-3.94ZM162.5,329.13l2.58-16.23-55.6-3.98-2.8,16.12,55.82,4.08ZM211.95,396.48c.04-5.45-2.99-8.22-8.05-8.27-3.51-.03-8.01.66-9.47,3.52-1.56,3.04-1.36,7.52.39,10.13s5.87,3.19,9.13,3.2c5.26.01,7.97-3.03,8.01-8.58ZM164.38,463.95l1.17,5.89,14.98-.07.05-80.73-15.97-.1-.15,32.23c-6.32-5.78-12.57-7.75-20.47-7.28-16.55.99-27.81,13.76-26.96,30.18.71,13.65,9.33,24.3,23.08,26.69,9.05,1.58,17.67-.57,24.27-6.81ZM103.74,437.35l-.09-13.81h-35.83s.05-19.52.05-19.52l41.29-.09-.09-13.79-57.87.14.08,79.61,59.58-.05.03-13.33-43.06-.14.1-18.87,35.8-.15ZM259.93,457.49c-5.59,2.54-13.12,1.96-13.89-3.65-1.18-8.59-.61-17.01-.58-26.09l16.27-.23-.13-12.27-15.99-.16-.27-16.18-15.87,3.04-.31,13.02-10.56.57.02,11.8,10.66.51.37,27.81c.09,7.19,5.4,12.87,12.02,14.44,7.41,1.76,14.08,1.22,21.5-1.09-.72-4.29-1.63-7.78-3.25-11.51ZM308.82,470.13c10.72-2.23,19.11-9.78,21.69-18.51,3.05-10.31,1.44-21.57-6.46-28.68-13.89-12.51-36.62-12.38-49.64,1.4-9.46,10.01-9,27.08.16,36.92,8.68,9.33,21.83,11.43,34.25,8.85ZM358.55,469.7l.17-27.8c.03-5.69,3.61-11.77,9.56-12.9,3.68-.7,7.12-.59,11.09-.59l2.21-13.3c-8.62-2.98-16.39.32-22.32,7.29l-1.21-7.23-15.21.15.08,54.48,15.64-.11ZM210.64,469.83l.05-54.57h-15.96s0,54.63,0,54.63l15.91-.06Z"/>
      <polygon class="cls-5" points="309.21 56.55 248.68 52.62 249.96 36.42 311.22 39.66 309.21 56.55"/>
      <polygon class="cls-5" points="310.39 324.58 253.24 328.53 251.36 312.32 309.03 308.21 310.39 324.58"/>
      <path class="cls-2" d="M155.28,257.25l-74,.03c-.56-4.92-.7-8.61-.62-13.98l62.71.04,11.92,13.91Z"/>
      <polygon class="cls-5" points="162.93 51.39 107.56 54.99 105.49 38.44 161.86 34.97 162.93 51.39"/>
      <polygon class="cls-5" points="162.5 329.13 106.68 325.05 109.48 308.93 165.08 312.91 162.5 329.13"/>
      <path class="cls-2" d="M335.33,257.31l-70.65-.16c4.19-5.7,7.48-9.51,11.51-13.83l59.86.06c.01,4.53-.14,8.16-.72,13.93Z"/>
      <path class="cls-2" d="M126.22,120.44l-4.68,15.53-37.24-.2c-4.32-4.71-5.6-11.33-2.55-16.92l33.28.1c3.5.01,7.36,1.08,11.18,1.49Z"/>
      <polygon class="cls-2" points="130.59 227.31 80.13 227.42 80.21 213.47 118.73 213.31 130.59 227.31"/>
      <polygon class="cls-2" points="336.11 227.37 288.39 227.3 299.2 213.27 336.04 213.33 336.11 227.37"/>
      <path class="cls-2" d="M86.76,193.8c1.27-.97,3.11-2.02,4.71-2.63l1.77,1.89c.36.38,2.04-1.83,2.05-2.36l.11-7.28,18.15-.14-1.4,13.68-24.95-.02-.42-3.13Z"/>
      <polygon class="cls-2" points="115.58 167.25 95.65 167.21 97.69 152.64 118.42 152.81 115.58 167.25"/>
      <polygon class="cls-2" points="319.03 167.05 303.85 167.14 299.99 152.95 319.13 152.77 319.03 167.05"/>
      <path class="cls-2" d="M320.7,196.91l-13.72.03-1.05-13.73,12.48.18c.09,5.44.28,9,2.28,13.52Z"/>
      <g>
        <path class="cls-5" d="M384.9,323.31l-31.85,13.67-34.07-12.79-.48-33.71,33.35-14.49,32.98,13.17.06,34.15ZM375.73,291.63l-23.6-9.43-23.28,9.95,24.39,9.58,22.49-10.09ZM350.56,329.77l.18-23.37-25.05-9.14.1,23.58,24.77,8.93Z"/>
        <polygon class="cls-3" points="350.56 329.77 325.79 320.83 325.7 297.26 350.74 306.4 350.56 329.77"/>
        <polygon class="cls-3" points="375.73 291.63 353.25 301.73 328.86 292.15 352.14 282.2 375.73 291.63"/>
      </g>
      <g>
        <path class="cls-5" d="M240.07,53.6l-32.99,13.73-34.8-12.96-.27-33.72,33.95-14.38,27.11,10.77,7,2.66v33.9ZM209.68,30.95l20.98-9.08-24.63-9.76-23.37,10.07,16.34,6.96c2.74,1.17,7.68,3.11,10.68,1.82ZM204.48,60.31l.09-23.7-25.14-9.15v23.62s25.06,9.23,25.06,9.23Z"/>
        <polygon class="cls-3" points="204.48 60.31 179.44 51.08 179.43 27.46 204.57 36.62 204.48 60.31"/>
        <path class="cls-3" d="M209.68,30.95c-3,1.3-7.94-.65-10.68-1.82l-16.34-6.96,23.37-10.07,24.63,9.76-20.98,9.08Z"/>
      </g>
      <g>
        <g>
          <path class="cls-5" d="M69.85,135.98c-7.19-2.05-12.19-3.38-18.86-4.43l.23-39.54c7.29,1.48,12.2,1.99,19.01,1.97l-.38,42Z"/>
          <g>
            <path class="cls-5" d="M65.31,87l-34.82-12.83.11-33.9,32.94-13.84,34.14,13.07.18,34.04-32.56,13.45ZM87.82,41.82c-8.52-3.73-15.46-6.38-23.93-9.55l-22.98,9.77c9.04,4.08,16.37,6.72,24.86,9.52l22.05-9.75ZM62.41,80.22l.14-23.84-25.06-8.86.09,23.27,24.83,9.43Z"/>
            <polygon class="cls-3" points="62.41 80.22 37.58 70.79 37.49 47.52 62.55 56.38 62.41 80.22"/>
            <path class="cls-3" d="M87.82,41.82l-22.05,9.75c-8.49-2.8-15.82-5.44-24.86-9.52l22.98-9.77c8.47,3.16,15.42,5.81,23.93,9.55Z"/>
          </g>
        </g>
        <g>
          <path class="cls-5" d="M69.59,266.1l-19.46,3.49.42-53.24c6.93-.74,12.05-1.86,19.08-3.46l-.04,53.22Z"/>
          <g>
            <path class="cls-5" d="M91.47,191.16c-1.59.62-3.44,1.66-4.71,2.63-10.05,2.58-19.28,7.94-29.99,11.54l-36.85-13.52.09-35.11,35.84-14.94,35.73,13.82-.12,35.58ZM82.2,158.35c-9.19-3.67-17.42-7.09-26.16-9.91-8.81,3-16.98,6.64-25.24,10.16l26.25,9.75,25.15-10ZM53.96,198.22c.38-8.53.39-16.08.28-24.83l-26.81-9.84-.02,25.01,26.54,9.66Z"/>
            <path class="cls-3" d="M53.96,198.22l-26.54-9.66.02-25.01,26.81,9.84c.11,8.75.1,16.3-.28,24.83Z"/>
            <path class="cls-3" d="M82.2,158.35l-25.15,10-26.25-9.75c8.26-3.52,16.43-7.16,25.24-10.16,8.74,2.81,16.97,6.23,26.16,9.91Z"/>
          </g>
        </g>
      </g>
      <g>
        <path class="cls-5" d="M364.72,269.95l-19.06-3.53.83-53.41c6.69,1.59,11.85,2.52,18.19,3.09l.04,53.85Z"/>
        <g>
          <path class="cls-5" d="M394.09,191.51l-34.18,14.48-36.22-13.52.23-35.11,34.89-14.66,35.32,13.66-.04,35.14ZM360.43,168.88c8.49-2.99,16.32-6.35,24.01-9.9-8.88-3.74-17.03-7.23-25.41-9.66-8.34,2.82-16.41,6.33-24.4,10.01,9.11,3.75,17.17,7.01,25.8,9.55ZM357.03,198.73l.44-24.43-26.19-9.98-.23,24.82,25.97,9.59Z"/>
          <polygon class="cls-7" points="357.03 198.73 331.05 189.15 331.28 164.33 357.47 174.3 357.03 198.73"/>
          <path class="cls-3" d="M360.43,168.88c-8.63-2.55-16.68-5.8-25.8-9.55,7.99-3.67,16.06-7.19,24.4-10.01,8.37,2.43,16.53,5.92,25.41,9.66-7.69,3.55-15.52,6.91-24.01,9.9Z"/>
        </g>
      </g>
      <g>
        <polygon class="cls-4" points="103.74 437.35 67.94 437.5 67.84 456.38 110.9 456.51 110.87 469.85 51.29 469.9 51.2 390.29 109.08 390.15 109.16 403.94 67.87 404.03 67.82 423.54 103.65 423.54 103.74 437.35"/>
        <path class="cls-4" d="M164.38,463.95c-6.6,6.23-15.22,8.38-24.27,6.81-13.75-2.39-22.37-13.04-23.08-26.69-.85-16.42,10.41-29.18,26.96-30.18,7.9-.47,14.15,1.5,20.47,7.28l.15-32.23,15.97.1-.05,80.73-14.98.07-1.17-5.89ZM160.07,430.56c-7.26-6.47-18.35-5.05-23.66,1.96s-4.32,17.3,2.64,22.85c6.52,5.21,17.48,4.91,22.87-2.57,4.63-6.43,4.42-16.65-1.85-22.25Z"/>
        <path class="cls-4" d="M308.82,470.13c-12.42,2.58-25.57.47-34.25-8.85-9.16-9.85-9.62-26.91-.16-36.92,13.02-13.78,35.75-13.91,49.64-1.4,7.89,7.11,9.51,18.37,6.46,28.68-2.58,8.72-10.97,16.28-21.69,18.51ZM300.55,458.89c9.23-.47,15.22-7.17,15.32-16,.05-4.6-1.4-9.51-4.67-12.53-3.06-2.82-8.09-4.1-12.48-3.88-9.37.48-15.16,7.39-14.96,16.55s6.69,16.37,16.79,15.86Z"/>
        <path class="cls-4" d="M259.93,457.49c1.62,3.73,2.53,7.22,3.25,11.51-7.42,2.31-14.1,2.85-21.5,1.09-6.62-1.57-11.93-7.26-12.02-14.44l-.37-27.81-10.66-.51-.02-11.8,10.56-.57.31-13.02,15.87-3.04.27,16.18,15.99.16.13,12.27-16.27.23c-.03,9.09-.61,17.51.58,26.09.77,5.61,8.3,6.19,13.89,3.65Z"/>
        <path class="cls-4" d="M358.55,469.7l-15.64.11-.08-54.48,15.21-.15,1.21,7.23c5.94-6.98,13.71-10.27,22.32-7.29l-2.21,13.3c-3.97,0-7.41-.12-11.09.59-5.94,1.13-9.52,7.21-9.56,12.9l-.17,27.8Z"/>
        <polygon class="cls-4" points="210.64 469.83 194.74 469.89 194.73 415.27 210.69 415.26 210.64 469.83"/>
        <path class="cls-4" d="M211.95,396.48c-.04,5.55-2.75,8.59-8.01,8.58-3.26,0-7.39-.58-9.13-3.2s-1.94-7.09-.39-10.13c1.47-2.86,5.96-3.55,9.47-3.52,5.06.05,8.09,2.82,8.05,8.27Z"/>
        <path class="cls-6" d="M160.07,430.56c6.28,5.6,6.48,15.82,1.85,22.25-5.39,7.48-16.35,7.77-22.87,2.57-6.96-5.56-7.7-16.17-2.64-22.85,5.31-7.01,16.4-8.44,23.66-1.96Z"/>
        <path class="cls-6" d="M300.55,458.89c-10.1.51-16.59-6.62-16.79-15.86s5.59-16.08,14.96-16.55c4.39-.22,9.42,1.06,12.48,3.88,3.27,3.02,4.72,7.93,4.67,12.53-.1,8.83-6.08,15.53-15.32,16Z"/>
      </g>
      <g>
        <path class="cls-5" d="M217.68,341.55l-8.91,3.83-34.81-13.29.08-34,33.46-14.21,34.56,13.24.2,34.26-24.58,10.16ZM209.43,309.66l22.83-9.95-24.33-9.86-23.65,10.08,25.15,9.73ZM206.23,338.48l.2-23.99-24.98-9.46-.23,23.92,25.01,9.53Z"/>
        <polygon class="cls-3" points="206.23 338.48 181.22 328.95 181.45 305.03 206.43 314.49 206.23 338.48"/>
        <polygon class="cls-3" points="209.43 309.66 184.28 299.93 207.94 289.85 232.26 299.71 209.43 309.66"/>
      </g>
      <g>
        <polygon class="cls-5" points="346.25 135.18 345.76 93.18 364.69 91.4 364.77 132.88 346.25 135.18"/>
        <g>
          <path class="cls-5" d="M366.59,79.74c-4.3,1.84-9.36,4.26-13.56,5.63l-32.7-12.51.04-32.79,31.81-13.58,32.38,12.96v32.61s-17.97,7.68-17.97,7.68ZM375,41.68c-7.63-3.46-15.21-7.59-22.83-8.76-7.34,2.07-14.57,5.66-21.34,9.06,8.21,3.62,15.44,6.65,23.17,8.9,7.04-2.41,13.98-5.78,21-9.2ZM350.81,78.55l.17-23.07-23.63-8.43-.18,22.74,23.65,8.76Z"/>
          <polygon class="cls-3" points="350.81 78.55 327.16 69.79 327.35 47.05 350.98 55.48 350.81 78.55"/>
          <path class="cls-3" d="M375,41.68c-7.02,3.42-13.96,6.79-21,9.2-7.72-2.26-14.95-5.29-23.17-8.9,6.77-3.4,13.99-6.99,21.34-9.06,7.61,1.17,15.19,5.3,22.83,8.76Z"/>
        </g>
      </g>
      <g>
        <path class="cls-5" d="M66.4,337.28l-34.79-12.98-.04-34,33.09-14.26,33.29,13.48-.17,34.09-31.37,13.67ZM66.52,301.89l22.14-10.02-23.68-9.69-23.04,10.05,24.59,9.66ZM63.26,330l.27-23.32-24.89-9.46-.09,23.81,24.7,8.97Z"/>
        <polygon class="cls-3" points="63.26 330 38.56 321.03 38.65 297.22 63.54 306.68 63.26 330"/>
        <polygon class="cls-3" points="66.52 301.89 41.93 292.22 64.97 282.18 88.65 291.87 66.52 301.89"/>
      </g>
      <g>
        <path class="cls-1" d="M250.61,255.38c-27.42,5.55-54,5.95-81.6.23-16.8-18.54-32.63-37.42-48.19-57.66.82-7.94.51-15.58,2.03-23.24,3.87-19.51,9.16-37.98,14.66-57.02,8.33-4.17,15.64-7.76,23.81-11.32l39.8-17.31c2.98-1.3,7.94-2.31,10.99-1.13,23.38,9.1,45.19,18.33,68.4,29.05l14.42,49.04c2.8,10.91,4.45,21.29,3.75,32.46-15.73,19.84-31.46,38.27-48.06,56.89ZM226.53,219.53l7.82,14.55c.76,1.41,3.98,2.08,5.36,1,1.21-.94,1.15-3.52.52-5.06l-5.78-14.23c10.76-6.15,16.9-14.88,21.88-25.5l14.67,3.89c1.47.39,4.42-1.38,4.61-2.67s-1.23-4.02-2.46-4.42l-14.95-4.72c1.24-12.32-1.46-23.27-8.05-34.17l11.92-10.17c.99-.85,1.34-4.09.58-5.14s-4.02-1.22-5.15-.43l-13.4,9.35c-9.29-8.42-18.99-12.21-31.05-13.74l-1-16.46c-.09-1.43-3.02-2.91-4.61-2.63-1.23.21-2.52,2.34-2.62,3.79l-1.01,15.58c-12.12,1.67-20.77,5.67-29.95,13.71l-13.38-9.69c-1.57-1.14-5-.12-5.75,1.59-.54,1.22.23,3.52,1.45,4.53l12.52,10.32c-6.95,10.82-8.76,21.51-7.75,33.6l-15.78,5.07c-1.38.44-2.19,3.61-1.63,4.88.65,1.48,3.6,2.11,5.27,1.67l14.26-3.78c4.67,11.43,12,19.19,22.13,25.71l-6.65,14.62c-.68,1.49.65,4.38,2.05,4.64,1.48.27,4.27-.56,4.86-1.7l7.21-13.82c11.32,3.32,21.86,5.04,33.86-.19Z"/>
        <g>
          <path class="cls-6" d="M226.53,219.53c-12,5.23-22.54,3.51-33.86.19l-7.21,13.82c-.59,1.14-3.38,1.97-4.86,1.7-1.41-.25-2.73-3.14-2.05-4.64l6.65-14.62c-10.13-6.52-17.46-14.28-22.13-25.71l-14.26,3.78c-1.67.44-4.62-.19-5.27-1.67-.55-1.27.25-4.44,1.63-4.88l15.78-5.07c-1.01-12.09.8-22.78,7.75-33.6l-12.52-10.32c-1.22-1-1.99-3.3-1.45-4.53.75-1.71,4.18-2.73,5.75-1.59l13.38,9.69c9.18-8.04,17.83-12.04,29.95-13.71l1.01-15.58c.09-1.45,1.39-3.58,2.62-3.79,1.59-.28,4.52,1.2,4.61,2.63l1,16.46c12.06,1.53,21.75,5.32,31.05,13.74l13.4-9.35c1.13-.79,4.39-.62,5.15.43s.42,4.29-.58,5.14l-11.92,10.17c6.59,10.91,9.29,21.85,8.05,34.17l14.95,4.72c1.24.39,2.66,3.13,2.46,4.42s-3.14,3.06-4.61,2.67l-14.67-3.89c-4.97,10.62-11.11,19.36-21.88,25.5l5.78,14.23c.63,1.54.69,4.12-.52,5.06-1.38,1.08-4.6.41-5.36-1l-7.82-14.55ZM200.84,158.56l2.37-21.35c-8.82,1.21-15.98,4.26-22.09,10,6.98,4.29,12.41,7.72,19.72,11.35ZM221.65,157.25l15.72-10.02c-7.14-6.14-14.52-9.18-23.33-10.18l2.89,18.63c.13.82,1.36,2.69,1.98,2.66s1.77-.48,2.73-1.09ZM188.9,172.87c.88-.31,1.08-4,.36-4.67l-14.2-13.06c-5.09,7.8-6.64,15.36-5.13,24.52l18.97-6.8ZM230.09,172.52l19.15,7.01c1.26-9.09-.52-16.73-5.36-24.16l-14.27,13.61c-.38.37.02,3.24.48,3.54ZM208.39,168.5c-4.3.4-6.74,4.4-6.2,7.99s4.69,6.09,8.22,5.49,6.68-3.89,5.54-8.17c-.69-2.6-4.25-5.62-7.56-5.31ZM230.91,207.84c7.75-3.91,12.9-10.43,15.75-18.88-8.15-1.23-14.03-1.99-22.19-2.36,1.96,8.1,3.82,13.82,6.44,21.24ZM188.84,207.52l5.4-18.76c-.42-.79-2.26-2.3-3.19-2.17l-18.88,2.6c3.82,8.91,9.16,14.77,16.67,18.33ZM222.23,211.73l-10.32-15.49c-.33-.5-1.83-1.39-2.39-1.33s-1.85.9-2.19,1.42l-10.15,15.44c8.72,3.44,16.81,3.94,25.05-.04Z"/>
          <path class="cls-1" d="M188.9,172.87l-18.97,6.8c-1.51-9.16.04-16.72,5.13-24.52l14.2,13.06c.72.66.52,4.35-.36,4.67Z"/>
          <path class="cls-1" d="M230.09,172.52c-.47-.29-.87-3.17-.48-3.54l14.27-13.61c4.85,7.43,6.62,15.07,5.36,24.16l-19.15-7.01Z"/>
          <path class="cls-1" d="M221.65,157.25c-.96.61-2.11,1.06-2.73,1.09s-1.86-1.84-1.98-2.66l-2.89-18.63c8.81,1,16.18,4.05,23.33,10.18l-15.72,10.02Z"/>
          <path class="cls-1" d="M230.91,207.84c-2.63-7.42-4.48-13.14-6.44-21.24,8.16.37,14.05,1.13,22.19,2.36-2.85,8.44-8,14.97-15.75,18.88Z"/>
          <path class="cls-1" d="M222.23,211.73c-8.25,3.99-16.33,3.48-25.05.04l10.15-15.44c.34-.52,1.62-1.36,2.19-1.42s2.06.82,2.39,1.33l10.32,15.49Z"/>
          <path class="cls-1" d="M188.84,207.52c-7.51-3.56-12.85-9.42-16.67-18.33l18.88-2.6c.94-.13,2.78,1.39,3.19,2.17l-5.4,18.76Z"/>
          <path class="cls-1" d="M200.84,158.56c-7.31-3.63-12.73-7.06-19.72-11.35,6.1-5.74,13.27-8.79,22.09-10l-2.37,21.35Z"/>
          <path class="cls-1" d="M208.39,168.5c3.31-.31,6.86,2.71,7.56,5.31,1.14,4.28-1.85,7.55-5.54,8.17s-7.69-1.9-8.22-5.49,1.91-7.59,6.2-7.99Z"/>
        </g>
      </g>
    </g>
  </g>
</svg>